<svg id="icon-knee" xmlns="http://www.w3.org/2000/svg" width="60.792" height="60.792" viewBox="0 0 60.792 60.792">
  <path id="Path_32" data-name="Path 32" d="M71.2,149.184a67.833,67.833,0,0,1,3.481-8.757,23.6,23.6,0,0,0,1.263-3.141,9.64,9.64,0,0,0,.509-2.554,8.208,8.208,0,0,0-.2-1.993c-.34-1.741-.9-2.077-.814-3.284a1.891,1.891,0,0,1,.533-1.4,1.674,1.674,0,0,1,1.432-.224c.477.085.617.281,1.769,1.094a6.446,6.446,0,0,0,1.46.9,4.908,4.908,0,0,0,1.6.2c2.47.112,2.751.14,3.057.393a2.247,2.247,0,0,1,.758,1.572,2.909,2.909,0,0,1-.645,1.684,7.537,7.537,0,0,1-1.769,1.853c-.561.393-.982,1.881-2.386,5.108-1.066,2.414-2.61,5.838-4.659,10.666l-3.705-.589Z" transform="translate(-51.637 -92.433)" fill="#fff"/>
  <path id="Path_33" d="M102.4,42.3" transform="translate(-74.08 -30.961)" stroke="#000" stroke-width="1"/>
  <path id="Path_34" d="M42.289,7.3a2.468,2.468,0,0,1,.17.281c3.057,4.968,5.389,8.392,6.989,10.666a53.736,53.736,0,0,1,3.4,5.333c1.094,1.965.842,1.825,2.5,5.024,1.572,3.031,2.077,3.705,2.442,5.361a8.014,8.014,0,0,1,0,4.07A8.836,8.836,0,0,1,56.3,40.7c-2.274,3.031-3.789,3.226-5.389,5.67a22.853,22.853,0,0,0-1.46,3.284s-1.319,3.031-3.171,7.186c-.9,1.993-2.274,4.856-4.154,8.336L32.719,63.6l-9.177-6.118c.028-.224.085-.842.224-1.572a34.445,34.445,0,0,1,6.511-14.118A9.54,9.54,0,0,0,31.4,40.111a7.223,7.223,0,0,0,1.066-3.536c-.028-1.235-.673-2.246-1.8-3.592-2.33-2.835-4.659-4.435-8.336-7.27-3.424-2.638-3.592-2.887-3.705-3.256-.2-.729.7-1.066,1.572-2.414,1.319-2.049,3.62-5.613,10.358-9.849l6.175-2.3Z" transform="translate(-13.802 -5.784)" fill="#437fb8" stroke="#437fb8" stroke-width="1"/>
  <path id="Path_35" d="M52.7,147.128a77.934,77.934,0,0,1,4.351-9.711c.533-.9.842-1.544,1.46-2.807a7.225,7.225,0,0,0,.814-2.133c.028-.2.14-1.066.2-1.993a4.517,4.517,0,0,1,.2-.954c.112-.34.255-.729.449-.729s.393.425.393.477a1.613,1.613,0,0,1,.112.645,3.336,3.336,0,0,0,.309,1.207,9.437,9.437,0,0,1,.34,2.217,4.561,4.561,0,0,1-.561,2.694,14.893,14.893,0,0,1-1.181,1.208s-.561.617-1.178,1.291c-1.235,1.347-3.566,9.065-3.789,9.739Z" transform="translate(-38.33 -93.183)" fill="#121317"/>
  <path id="Path_36" d="M62.3,11.525c7.3,9.764,9.849,13.755,10.638,15.409a9.035,9.035,0,0,0,1.909,3.057,15.942,15.942,0,0,1,2.386,2.274,6.1,6.1,0,0,1,.926,1.572c.758,2.161-.87,5.3-3.311,6.82-.449.281-2.835,1.769-5.277.786-1.207-.477-2.807-1.712-2.807-3.2a3.515,3.515,0,0,1,.7-2.049c.393-.509.673-.533.842-.982a2.692,2.692,0,0,0-.365-1.993c-.393-.842-.673-.842-.842-1.488a5.278,5.278,0,0,1,0-1.488,5.964,5.964,0,0,0-.645-2.133C65.865,26.791,61.8,21.177,55.9,13.8l5.22-2.7Z" transform="translate(-40.632 -8.518)" fill="#121317"/>
  <path id="Path_37" d="M135.6,103.987a4.56,4.56,0,0,0,1.038-1.965c.17-1.122-.645-1.628-.255-2.3a1.157,1.157,0,0,1,1.15-.561c.589.112.842.814.926,1.01a2.28,2.28,0,0,1,.14.7c.028,1.684.056,2.5.028,2.666-.281,1.712-1.684,3.705-2.919,3.62a1.285,1.285,0,0,1-1.094-.729,1.8,1.8,0,0,1,.224-1.375,5.66,5.66,0,0,1,.761-1.066Z" transform="translate(-97.206 -71.85)" fill="#121317"/>
  <path id="Path_38" d="M71.2,149.184a67.833,67.833,0,0,1,3.481-8.757,23.6,23.6,0,0,0,1.263-3.141,9.64,9.64,0,0,0,.509-2.554,8.208,8.208,0,0,0-.2-1.993c-.34-1.741-.9-2.077-.814-3.284a1.891,1.891,0,0,1,.533-1.4,1.674,1.674,0,0,1,1.432-.224c.477.085.617.281,1.769,1.094a6.446,6.446,0,0,0,1.46.9,4.908,4.908,0,0,0,1.6.2c2.47.112,2.751.14,3.057.393a2.247,2.247,0,0,1,.758,1.572,2.909,2.909,0,0,1-.645,1.684,7.537,7.537,0,0,1-1.769,1.853c-.561.393-.982,1.881-2.386,5.108-1.066,2.414-2.61,5.838-4.659,10.666l-3.705-.589Z" transform="translate(-51.637 -92.433)" fill="#121317"/>
  <path id="Path_39" d="M31.9,3.865A28.432,28.432,0,1,1,3.465,32.3,28.432,28.432,0,0,1,31.9,3.865m0-1.965a30.438,30.438,0,1,0,.005,0Z" transform="translate(-1.5 -1.9)" fill="#437fb8"/>
</svg>
