<svg xmlns="http://www.w3.org/2000/svg" width="1052.8" height="329.5" viewBox="0 0 1052.8 329.5">
  <g id="Logo" transform="translate(-59 -59)">
    <g id="Group_1320" data-name="Group 1320">
      <path id="Path_126" data-name="Path 126" d="M95.7,388.5c-10.8,0-19.4-3.5-25.9-10.5s-9.7-16.1-9.7-27.3q0-18.15,9.9-28.8,9.9-10.8,27-10.8c10.5,0,19,3.5,25.4,10.4Q132,332,132,348.8c0,12.2-3.3,21.9-9.9,29S106.7,388.5,95.7,388.5Zm.6-66.6a20.778,20.778,0,0,0-16.7,7.7c-4.3,5.1-6.5,11.9-6.5,20.2s2.1,15,6.3,20.1a20.109,20.109,0,0,0,16.4,7.6c7.2,0,12.8-2.4,17-7.3,4.1-4.8,6.2-11.6,6.2-20.3q0-13.5-6-20.7C108.9,324.4,103.4,321.9,96.3,321.9Z" fill="#fff"/>
      <path id="Path_127" data-name="Path 127" d="M238.3,387.2H223.8l-12-20.1a38.241,38.241,0,0,0-3.2-4.7,19.016,19.016,0,0,0-3.1-3.2,10.564,10.564,0,0,0-3.5-1.8,14.213,14.213,0,0,0-4.2-.6h-5v30.4H180.4V312.3H205a32.995,32.995,0,0,1,9.7,1.3,21.368,21.368,0,0,1,7.7,3.8,17.341,17.341,0,0,1,5.1,6.3,20.479,20.479,0,0,1,1.9,8.9,21.5,21.5,0,0,1-1.2,7.3,19.98,19.98,0,0,1-3.3,5.9,20.245,20.245,0,0,1-5.2,4.4,23.768,23.768,0,0,1-6.9,2.8v.2a25.305,25.305,0,0,1,3.6,2.5c1,.9,2,1.9,2.9,2.8q1.35,1.5,2.7,3.3c.9,1.2,1.9,2.7,3,4.3Zm-45.5-64.8v24.3h10.3a15.12,15.12,0,0,0,5.3-.9,11.42,11.42,0,0,0,4.2-2.6,11.95,11.95,0,0,0,2.8-4.1,13.334,13.334,0,0,0,1-5.4c0-3.6-1.1-6.4-3.4-8.4s-5.5-3-9.8-3H192.8Z" fill="#fff"/>
      <path id="Path_128" data-name="Path 128" d="M327.2,322.8H305.7v64.4H293.3V322.8H271.8V312.2h55.4Z" fill="#fff"/>
      <path id="Path_129" data-name="Path 129" d="M433,387.2H420.5V354.7H385.2v32.5H372.8V312.3h12.4v31.5h35.3V312.3H433Z" fill="#fff"/>
      <path id="Path_130" data-name="Path 130" d="M517.1,388.5c-10.8,0-19.4-3.5-25.9-10.5s-9.7-16.1-9.7-27.3q0-18.15,9.9-28.8,9.9-10.8,27-10.8c10.5,0,19,3.5,25.4,10.4q9.6,10.5,9.6,27.3c0,12.2-3.3,21.9-9.9,29S528.1,388.5,517.1,388.5Zm.6-66.6a20.778,20.778,0,0,0-16.7,7.7c-4.3,5.1-6.5,11.9-6.5,20.2s2.1,15,6.3,20.1a20.109,20.109,0,0,0,16.4,7.6c7.2,0,12.8-2.4,17-7.3,4.1-4.8,6.2-11.6,6.2-20.3q0-13.5-6-20.7C530.3,324.4,524.7,321.9,517.7,321.9Z" fill="#fff"/>
      <path id="Path_131" data-name="Path 131" d="M614.1,360v27.2H601.7V312.3h22.7c8.6,0,15.3,2,20,6s7.1,9.6,7.1,16.9a23.675,23.675,0,0,1-7.4,17.9Q636.75,360,624,360Zm0-37.5v27.4h8c5.3,0,9.4-1.2,12.2-3.7s4.2-6,4.2-10.4c0-8.8-5.1-13.2-15.4-13.2h-9Z" fill="#fff"/>
      <path id="Path_132" data-name="Path 132" d="M741,387.2H699V312.3h40.4v10.6h-28V344h25.8v10.5H711.4v22.2H741Z" fill="#fff"/>
      <path id="Path_133" data-name="Path 133" d="M789,387.2V312.3h21.6q41.4,0,41.4,36.5c0,11.6-3.8,20.9-11.5,27.9s-17.9,10.5-30.8,10.5Zm12.4-64.4v53.9h9.9q13.05,0,20.4-7.2c4.9-4.8,7.3-11.6,7.3-20.4,0-17.5-9.1-26.3-27.2-26.3Z" fill="#fff"/>
      <path id="Path_134" data-name="Path 134" d="M913.2,387.2H900.4V312.3h12.8Z" fill="#fff"/>
      <path id="Path_135" data-name="Path 135" d="M1018.5,384.1c-5.6,2.9-12.7,4.4-21.1,4.4-10.9,0-19.6-3.4-26.1-10.3s-9.8-15.9-9.8-27c0-12,3.7-21.7,11-29q11.1-11.1,27.9-11.1c7.2,0,13.3,1,18,3.1v12.3a32.176,32.176,0,0,0-16.7-4.5c-8.1,0-14.7,2.6-19.7,7.8s-7.5,12.1-7.5,20.8c0,8.3,2.4,14.8,7.1,19.7s10.9,7.3,18.5,7.3a33.552,33.552,0,0,0,18.4-5v11.5Z" fill="#fff"/>
      <path id="Path_136" data-name="Path 136" d="M1064,384.2V371.4a21.077,21.077,0,0,0,4.1,2.8,43.984,43.984,0,0,0,5,2.1,37.131,37.131,0,0,0,5.3,1.3,29.092,29.092,0,0,0,4.9.5c5.2,0,9.1-.9,11.7-2.6a8.48,8.48,0,0,0,3.8-7.6,7.779,7.779,0,0,0-1.3-4.6,13.66,13.66,0,0,0-3.6-3.6,33.494,33.494,0,0,0-5.4-3.1c-2.1-1-4.3-2-6.7-3.1-2.5-1.4-4.9-2.7-7.1-4.1a29.394,29.394,0,0,1-5.7-4.6,19.6,19.6,0,0,1-3.8-5.7,18.935,18.935,0,0,1-1.4-7.5,17.284,17.284,0,0,1,2.4-9.2,20.252,20.252,0,0,1,6.3-6.4,29.9,29.9,0,0,1,8.9-3.8,42.924,42.924,0,0,1,10.1-1.2q11.7,0,17.1,2.7V326c-4.2-3.1-9.7-4.6-16.4-4.6a34.086,34.086,0,0,0-5.5.5,14.956,14.956,0,0,0-4.9,1.7,10.455,10.455,0,0,0-3.5,3.1,7.749,7.749,0,0,0-1.4,4.5,8.3,8.3,0,0,0,1,4.3,10.648,10.648,0,0,0,3.1,3.3,35.026,35.026,0,0,0,4.9,3c1.9,1,4.2,2,6.7,3.1,2.6,1.4,5.1,2.8,7.4,4.3a33.952,33.952,0,0,1,6.1,5,20.37,20.37,0,0,1,4.2,6,17.936,17.936,0,0,1,1.5,7.5,17.787,17.787,0,0,1-8.5,16,30.278,30.278,0,0,1-9,3.6,52.423,52.423,0,0,1-10.7,1.1,42.145,42.145,0,0,1-4.6-.3c-1.8-.2-3.7-.5-5.6-.8-1.9-.4-3.7-.8-5.4-1.3A14.952,14.952,0,0,1,1064,384.2Z" fill="#fff"/>
    </g>
    <g id="Group_1321" data-name="Group 1321">
      <path id="Path_137" data-name="Path 137" d="M193.3,211.8h-11l-21.6-47.2H94.1L72.5,211.8h-11l63-137.4h5.8Zm-66-120.2L98.1,155.8h58.6Z" fill="#437fb8"/>
      <path id="Path_138" data-name="Path 138" d="M263.1,139.8a64.921,64.921,0,0,0-10.3-8,15.341,15.341,0,0,0-7.7-2.2c-4.4,0-9.1,2.2-14,6.7s-9.9,10.8-14.8,19.1v56.4h-9.6V122h9.6v23.6h.4c10.7-16.9,21.1-25.4,31.4-25.4a20.12,20.12,0,0,1,9.3,2.4,58.4,58.4,0,0,1,11.3,8.2Z" fill="#437fb8"/>
      <path id="Path_139" data-name="Path 139" d="M287.7,137.6h.4c4.1-6.3,8.5-10.7,13-13.4s10.1-4,16.6-4c10,0,18.1,3.2,24.2,9.6s9.2,15.5,9.2,27.2v54.8h-9.6V160.6q0-15.15-6.3-23.1c-4.2-5.3-10.2-7.9-18.1-7.9-6.4,0-11.9,1.5-16.4,4.6s-8.9,7.9-13,14.6v63h-9.6V122h9.6v15.6Z" fill="#437fb8"/>
      <path id="Path_140" data-name="Path 140" d="M460.1,185.4a45.461,45.461,0,0,1-9.6,14.9,43.737,43.737,0,0,1-14.5,9.8,46.713,46.713,0,0,1-18.1,3.5,47.823,47.823,0,0,1-18.1-3.5,42.607,42.607,0,0,1-14.7-9.8,45.461,45.461,0,0,1-9.6-14.9,51.488,51.488,0,0,1,0-36.8,45.591,45.591,0,0,1,9.7-15,43.351,43.351,0,0,1,14.7-9.9,48.293,48.293,0,0,1,36.1,0,42.55,42.55,0,0,1,14.5,9.9,46.528,46.528,0,0,1,9.6,14.9,51.759,51.759,0,0,1,0,36.9Zm-9.4-33.2a35.639,35.639,0,0,0-7.4-11.9,33.818,33.818,0,0,0-11.4-7.9,35.013,35.013,0,0,0-14-2.8c-10.1,0-18.6,3.5-25.4,10.6a35.467,35.467,0,0,0-7.5,11.9,40.656,40.656,0,0,0-2.7,14.9,39.977,39.977,0,0,0,2.7,14.7,35.467,35.467,0,0,0,7.5,11.9c6.8,7.1,15.3,10.6,25.4,10.6a34,34,0,0,0,14-2.8,36.854,36.854,0,0,0,11.3-7.8,33.051,33.051,0,0,0,7.5-11.8,43.423,43.423,0,0,0,0-29.6Z" fill="#437fb8"/>
      <path id="Path_141" data-name="Path 141" d="M502.1,122h25.2v7.8H502.1v53.4c0,8.5.7,14.2,2.1,16.9s5.2,4.1,11.3,4.1a31.07,31.07,0,0,0,7.2-.8,51.741,51.741,0,0,0,9.2-3.6V209a50.285,50.285,0,0,1-8.2,3,46.985,46.985,0,0,1-10.4,1.6,22.594,22.594,0,0,1-14.6-4.9c-4.1-3.3-6.2-8-6.2-14.3V129.8H468.3V122h24.2V100.6l6.6-8.4h3V122Z" fill="#437fb8"/>
      <path id="Path_142" data-name="Path 142" d="M591.1,97.5l-6.8,37.9h74.6l8-43.8a35.662,35.662,0,0,0,.6-6q0-5.4-3-7.2c-1.3-.8-3.7-1.2-7-1.2h-6.8l1-5q14.4.6,28.2.6c2.7,0,6.7-.1,12.2-.3s9.6-.3,12.4-.3l-1,5h-3.6c-5.9,0-9.8,1.3-11.8,4-1.3,2-2.8,7.4-4.4,16.2l-16.6,89.1a78.249,78.249,0,0,0-1.6,12.8c0,2.9.7,4.9,2,5.9s3.7,1.5,7.2,1.5h7.4l-1,5H628.7l1-5h3.8c5.6,0,9.3-1.2,11.2-3.6,1.3-1.9,2.7-6.3,4-13.2l8.4-46.3H582.9l-8.2,42.9a78.249,78.249,0,0,0-1.6,12.8c0,2.9.7,4.9,2,5.9s3.7,1.5,7.2,1.5h7.4l-1,5H536.3l1-5h3.8c5.6,0,9.3-1.2,11.2-3.6,1.3-1.9,2.7-6.3,4-13.2l18-98.3a35.662,35.662,0,0,0,.6-6q0-5.4-3-7.2c-1.3-.8-3.7-1.2-7-1.2h-6.8l1-5q14.4.6,28.2.6c2.7,0,6.7-.1,12.2-.3s9.6-.3,12.4-.3l-1,5h-3.6c-6,0-9.9,1.3-11.8,4C594.2,83.4,592.7,88.8,591.1,97.5Z" fill="#fff"/>
      <path id="Path_143" data-name="Path 143" d="M773.5,185.4l2.8,3.4c-15.7,17.3-30.9,26-45.4,26q-12.75,0-19.2-8.4-5.4-7.2-5.4-18.6,0-24.45,18.1-45.9c12-14.3,25.2-21.5,39.4-21.5,13,0,19.5,4.7,19.5,14.2,0,12-7.3,21.6-21.8,28.8-10.5,5.2-23.1,8.5-37.8,9.8a67.44,67.44,0,0,0-1.6,15.4c0,4.8,1.5,8.6,4.6,11.3a17.288,17.288,0,0,0,11.8,4.1C749,204,760.6,197.8,773.5,185.4Zm-48.6-17.2c10.9-.7,20.3-3.5,28.2-8.6,9.6-6,14.4-14.1,14.4-24.1,0-5.8-2.7-8.6-8.2-8.6-6.9,0-14.2,5.2-21.8,15.7C731.1,151.5,726.9,160,724.9,168.2Z" fill="#fff"/>
      <path id="Path_144" data-name="Path 144" d="M868.1,127l2.8-6.4c1.5-2.7,2.9-4,4.4-4h4.2c1.2,0,1.8.3,1.8,1a7.975,7.975,0,0,1-.4,1.6l-19.8,71a19.835,19.835,0,0,0-.8,5c0,1.9.8,2.8,2.4,2.8,2.4,0,5.1-1.5,8.2-4.6q3.15-3.6,6.6-7.2l3.2,2.6c-4.7,5.3-9.4,10.7-14.2,16-6.5,6.7-12.5,10-17.8,10-4.5,0-6.8-1.9-6.8-5.6,0-2.7,1.1-7.5,3.4-14.6l5.8-18.2h-.4l-.2.4h.4l-.2-.4c-16.9,25.6-31.9,38.4-44.8,38.4-10.1,0-15.2-5.5-15.2-16.6q0-23.85,22.7-50.8c15.1-18,29.2-27,42.1-27Q862.85,120.4,868.1,127Zm-62.6,59.2q0,13.8,10.2,13.8,13.65,0,29.4-23.4c9.9-14.5,14.8-26.7,14.8-36.6a10.836,10.836,0,0,0-10-10.2c-10.1,0-20.2,6.9-30.2,20.8C810.2,163.5,805.5,175.4,805.5,186.2Z" fill="#fff"/>
      <path id="Path_145" data-name="Path 145" d="M946.3,60.2,915.1,190.6a19.257,19.257,0,0,0-.6,4c0,2.8.9,4.2,2.6,4.2,2.8,0,7.9-5.1,15.4-15.4l2.4,4.2c-8.5,11.2-12.9,16.8-13,16.8-6.3,6.9-12,10.4-17.2,10.4-4.9,0-7.4-3.3-7.4-9.8a47.534,47.534,0,0,1,1.4-9.8l28-120.8-12-6.4,1-2.8A102.9,102.9,0,0,0,930.3,63a123.847,123.847,0,0,0,14.6-4Z" fill="#fff"/>
      <path id="Path_146" data-name="Path 146" d="M975.9,123.4l7.6-25.2h16l-8.2,25.2h21.4l-2.4,8.2H989.1l-17.4,57.8a23.364,23.364,0,0,0-1.2,6.2c0,2.9,1.3,4.4,4,4.4,4.9,0,13.2-5.8,24.8-17.4l2.8,3.4c-17.3,19.2-30.7,28.8-40,28.8a7.5,7.5,0,0,1-6.5-3.1,12.2,12.2,0,0,1-2.3-7.3c0-2.7.9-6.9,2.6-12.8l17.8-60H954.1l2.4-8.2h19.4Z" fill="#fff"/>
      <path id="Path_147" data-name="Path 147" d="M1069.3,59.8l-28.2,105.4h.4a146.094,146.094,0,0,1,23.3-27.6c12.4-11.5,22.7-17.2,30.9-17.2q14.4,0,14.4,17.4c0,11.6-4.9,26.5-14.7,44.6-10.6,19.6-20.7,29.4-30.1,29.4-3.2,0-4.8-1.5-4.8-4.4a10.123,10.123,0,0,1,1-4l4.2-9.8h13.8a176.564,176.564,0,0,0,9.8-24.2c3.3-10.5,5-18.9,5-25.2,0-7.9-2.7-11.8-8-11.8-6.1,0-14.3,5.6-24.6,16.7-8.4,9.2-14.6,17.6-18.6,25.1-4.4,8.4-8.4,19.9-12,34.4-.5,2.1-3.4,3.2-8.6,3.2-4.3,0-6.4-1.1-6.4-3.4a38.8,38.8,0,0,1,1.2-6.2l31.6-129.7-9.8-5.6.6-2.6q4.2-.45,13.2-1.8c3.9-.7,8.6-1.8,14.2-3.4Z" fill="#fff"/>
    </g>
    <line id="Line_17" data-name="Line 17" x2="1051" transform="translate(59 262)" fill="none" stroke="#fff" stroke-width="3"/>
  </g>
</svg>
